# Blender 4.0.2
# www.blender.org
mtllib fishingrod2.mtl
o Object.1
v 248.024994 1.061885 328.664001
v 248.220993 -0.410021 327.463013
v 248.167007 -0.019273 326.786987
v 248.229004 -0.025301 326.787994
v 248.227997 -0.059778 326.847992
v 247.016998 -3.500225 333.069000
v 247.317993 -3.495195 333.013000
v 246.768997 3.440895 333.031006
v 246.768997 -3.456365 333.031006
v 248.048996 -0.007884 326.785004
v 246.994003 3.480595 333.065002
v 247.322006 3.468095 332.992004
v 247.016998 3.484675 333.069000
v 247.317993 3.479585 333.013000
v 247.016998 -3.490405 333.069000
v 247.317993 -3.472725 333.013000
v 72.269402 6.129873 306.359009
v 70.842400 -6.311487 305.839996
v 71.452698 -6.326527 306.234009
v 70.825996 -6.366537 305.941986
v 71.312401 -6.357367 306.213013
v 74.023499 -0.008887 295.029999
v 72.268303 -6.147367 306.359009
v 73.922501 0.142007 295.273987
v 70.827202 6.349343 305.941986
v 71.313499 6.340083 306.213013
v 70.827202 6.240723 305.941986
v 71.313499 6.272893 306.213013
v 74.006302 -0.036769 295.075989
v 71.520302 4.029743 301.678986
v 71.512001 -4.072187 301.725006
v 74.015099 -0.007964 295.027008
v -195.643005 -11.387988 157.330002
v -195.641006 11.424111 157.330002
v -185.854996 0.017143 140.169006
v 72.100800 -6.342506 306.653015
v 72.101997 6.325063 306.653015
v 70.794701 -6.650937 306.134003
v 70.795998 6.635633 306.134003
v 247.300995 -3.714245 333.112000
v 247.302002 3.663825 333.112000
v 246.783005 -3.504145 333.112000
v 246.783997 3.488635 333.112000
v 339.169006 -1.958506 315.911011
v 338.584991 -0.016900 312.598999
v 339.169006 1.924594 315.911011
v -185.854996 0.017143 140.169006
v -195.643005 -11.387988 157.330002
v -195.643005 -11.387988 157.330002
v 70.825996 -6.366537 305.941986
v 70.825996 -6.366537 305.941986
v 70.827202 6.240723 305.941986
v 70.827202 6.240723 305.941986
v 70.794701 -6.650937 306.134003
v 70.827202 6.240723 305.941986
v 70.827202 6.349343 305.941986
v -195.641006 11.424111 157.330002
v -195.641006 11.424111 157.330002
v 70.827202 6.349343 305.941986
v -195.641006 11.424111 157.330002
v 71.520302 4.029743 301.678986
v 71.520302 4.029743 301.678986
v 73.922501 0.142007 295.273987
v 73.922501 0.142007 295.273987
v 70.795998 6.635633 306.134003
v -185.854996 0.017143 140.169006
v 73.922501 0.142007 295.273987
v 74.015099 -0.007964 295.027008
v -185.854996 0.017143 140.169006
v 74.015099 -0.007964 295.027008
v 74.023499 -0.008887 295.029999
v 74.015099 -0.007964 295.027008
v 74.023499 -0.008887 295.029999
v 247.300995 -3.714245 333.112000
v 247.300995 -3.714245 333.112000
v 70.794701 -6.650937 306.134003
v 74.006302 -0.036769 295.075989
v 70.794701 -6.650937 306.134003
v 74.006302 -0.036769 295.075989
v 71.512001 -4.072187 301.725006
v -185.854996 0.017143 140.169006
v 74.006302 -0.036769 295.075989
v -185.854996 0.017143 140.169006
v 71.512001 -4.072187 301.725006
v 71.512001 -4.072187 301.725006
v 70.794701 -6.650937 306.134003
v 70.842400 -6.311487 305.839996
v 70.794701 -6.650937 306.134003
v 247.300995 -3.714245 333.112000
v 70.794701 -6.650937 306.134003
v 247.016998 -3.500225 333.069000
v 246.768997 -3.456365 333.031006
v 247.016998 -3.500225 333.069000
v 246.768997 -3.456365 333.031006
v 246.783005 -3.504145 333.112000
v 246.783005 -3.504145 333.112000
v 246.768997 3.440895 333.031006
v 246.768997 3.440895 333.031006
v 246.783997 3.488635 333.112000
v 70.794701 -6.650937 306.134003
v 246.768997 3.440895 333.031006
v 246.994003 3.480595 333.065002
v 70.794701 -6.650937 306.134003
v 246.994003 3.480595 333.065002
v 70.794701 -6.650937 306.134003
v 247.016998 3.484675 333.069000
v 247.302002 3.663825 333.112000
v 247.016998 3.484675 333.069000
v 247.016998 -3.500225 333.069000
v 247.016998 3.484675 333.069000
v 247.016998 -3.500225 333.069000
v 247.016998 -3.490405 333.069000
v 247.016998 3.484675 333.069000
v 246.783997 3.488635 333.112000
v 70.794701 -6.650937 306.134003
v 247.302002 3.663825 333.112000
v 70.794701 -6.650937 306.134003
v 72.268303 -6.147367 306.359009
v 72.268303 -6.147367 306.359009
v 71.452698 -6.326527 306.234009
v 72.100800 -6.342506 306.653015
v 71.452698 -6.326527 306.234009
v 72.100800 -6.342506 306.653015
v 71.312401 -6.357367 306.213013
v 70.795998 6.635633 306.134003
v 71.312401 -6.357367 306.213013
v 71.313499 6.272893 306.213013
v 70.795998 6.635633 306.134003
v 71.313499 6.272893 306.213013
v 70.795998 6.635633 306.134003
v 71.313499 6.340083 306.213013
v 247.302002 3.663825 333.112000
v 70.795998 6.635633 306.134003
v 72.269402 6.129873 306.359009
v 70.795998 6.635633 306.134003
v 247.302002 3.663825 333.112000
v 248.024994 1.061885 328.664001
v 247.302002 3.663825 333.112000
v 247.322006 3.468095 332.992004
v 248.024994 1.061885 328.664001
v 248.024994 1.061885 328.664001
v 338.584991 -0.016900 312.598999
v 248.048996 -0.007884 326.785004
v 338.584991 -0.016900 312.598999
v 248.167007 -0.019273 326.786987
v 70.795998 6.635633 306.134003
v 248.048996 -0.007884 326.785004
v 248.167007 -0.019273 326.786987
v 338.584991 -0.016900 312.598999
v 248.167007 -0.019273 326.786987
v 248.229004 -0.025301 326.787994
v 74.015099 -0.007964 295.027008
v 74.015099 -0.007964 295.027008
v 248.229004 -0.025301 326.787994
v 74.015099 -0.007964 295.027008
v 248.227997 -0.059778 326.847992
v 248.220993 -0.410021 327.463013
v 248.227997 -0.059778 326.847992
v 339.169006 -1.958506 315.911011
v 248.227997 -0.059778 326.847992
v 338.584991 -0.016900 312.598999
v 339.169006 -1.958506 315.911011
v 338.584991 -0.016900 312.598999
v 339.169006 -1.958506 315.911011
v 339.169006 1.924594 315.911011
v 247.317993 -3.495195 333.013000
v 339.169006 1.924594 315.911011
v 247.300995 -3.714245 333.112000
v 247.317993 -3.495195 333.013000
v 247.317993 -3.472725 333.013000
v 247.300995 -3.714245 333.112000
v 247.317993 -3.472725 333.013000
v 247.302002 3.663825 333.112000
v 247.300995 -3.714245 333.112000
v 247.317993 3.479585 333.013000
v 248.220993 -0.410021 327.463013
v 247.317993 -3.495195 333.013000
v 247.300995 -3.714245 333.112000
v 247.317993 -3.472725 333.013000
v 339.169006 1.924594 315.911011
v 247.317993 3.479585 333.013000
v 338.584991 -0.016900 312.598999
v 247.317993 3.479585 333.013000
v 339.169006 1.924594 315.911011
v 339.169006 -1.958506 315.911011
v 247.317993 -3.495195 333.013000
v 248.220993 -0.410021 327.463013
v 248.227997 -0.059778 326.847992
v 248.229004 -0.025301 326.787994
v 338.584991 -0.016900 312.598999
v 247.322006 3.468095 332.992004
v 247.317993 3.479585 333.013000
v 338.584991 -0.016900 312.598999
v 247.322006 3.468095 332.992004
v 247.302002 3.663825 333.112000
v 247.317993 3.479585 333.013000
v 70.795998 6.635633 306.134003
v 248.024994 1.061885 328.664001
v 248.048996 -0.007884 326.785004
v 72.269402 6.129873 306.359009
v 71.313499 6.340083 306.213013
v 72.101997 6.325063 306.653015
v 72.100800 -6.342506 306.653015
v 72.269402 6.129873 306.359009
v 71.313499 6.272893 306.213013
v 72.101997 6.325063 306.653015
v 71.313499 6.340083 306.213013
v 70.795998 6.635633 306.134003
v 70.794701 -6.650937 306.134003
v 71.312401 -6.357367 306.213013
v 72.100800 -6.342506 306.653015
v 72.101997 6.325063 306.653015
v 71.313499 6.272893 306.213013
v 72.100800 -6.342506 306.653015
v 72.268303 -6.147367 306.359009
v 72.269402 6.129873 306.359009
v 71.312401 -6.357367 306.213013
v 70.794701 -6.650937 306.134003
v 71.452698 -6.326527 306.234009
v 72.268303 -6.147367 306.359009
v 247.302002 3.663825 333.112000
v 72.269402 6.129873 306.359009
v 246.783997 3.488635 333.112000
v 247.016998 3.484675 333.069000
v 246.994003 3.480595 333.065002
v 247.016998 -3.490405 333.069000
v 246.783997 3.488635 333.112000
v 246.783005 -3.504145 333.112000
v 246.783005 -3.504145 333.112000
v 247.016998 -3.500225 333.069000
v 247.016998 -3.490405 333.069000
v 246.768997 3.440895 333.031006
v 70.794701 -6.650937 306.134003
v 246.768997 -3.456365 333.031006
v 247.016998 -3.500225 333.069000
v 247.300995 -3.714245 333.112000
v 247.302002 3.663825 333.112000
v 247.300995 -3.714245 333.112000
v 74.015099 -0.007964 295.027008
v 248.220993 -0.410021 327.463013
v -185.854996 0.017143 140.169006
v 74.023499 -0.008887 295.029999
v 74.006302 -0.036769 295.075989
v 248.167007 -0.019273 326.786987
v 74.015099 -0.007964 295.027008
v 70.795998 6.635633 306.134003
v 70.827202 6.349343 305.941986
v 70.795998 6.635633 306.134003
v 71.520302 4.029743 301.678986
v 70.794701 -6.650937 306.134003
v 70.795998 6.635633 306.134003
v 70.827202 6.349343 305.941986
v 70.794701 -6.650937 306.134003
v 70.825996 -6.366537 305.941986
v 70.842400 -6.311487 305.839996
v 70.842400 -6.311487 305.839996
v 70.825996 -6.366537 305.941986
v -185.854996 0.017143 140.169006
v 73.922501 0.142007 295.273987
v -185.854996 0.017143 140.169006
v -195.641006 11.424111 157.330002
v 70.827202 6.240723 305.941986
v -195.641006 11.424111 157.330002
v -195.643005 -11.387988 157.330002
vn -0.8687 0.0001 -0.4954
vn 0.2559 -0.8660 -0.4296
vn -0.4871 -0.0000 0.8734
vn -0.9870 0.0001 -0.1607
vn -0.9868 -0.0000 -0.1621
vn 0.2561 0.8660 -0.4296
vn 0.0898 0.8660 -0.4919
vn 0.0933 0.8659 -0.4915
vn 0.2562 0.8659 -0.4297
vn 0.2408 0.8825 -0.4040
vn 0.1014 -0.8355 -0.5401
vn 0.0895 -0.8662 -0.4917
vn 0.0896 -0.8660 -0.4920
vn 0.0898 -0.8660 -0.4919
vn -0.9870 -0.0007 -0.1610
vn -0.1511 -0.0018 0.9885
vn -0.1511 0.0017 0.9885
vn -0.0768 -0.8645 -0.4967
vn -0.9854 -0.0000 0.1703
vn -0.9833 0.0001 0.1820
vn -0.0777 0.8651 -0.4955
vn -0.1521 0.0145 0.9883
vn -0.1391 -0.1693 0.9757
vn -0.1513 0.0034 0.9885
vn -0.1494 -0.0000 0.9888
vn -1.0000 -0.0000 -0.0000
vn 0.1817 -0.0000 0.9834
vn -0.1511 0.0005 0.9885
vn -0.1525 0.0046 0.9883
vn 0.2560 -0.8662 -0.4291
vn 0.2546 -0.8677 -0.4270
vn -0.4874 -0.0000 0.8732
vn -0.1509 -0.0000 0.9886
vn -0.1512 -0.0000 0.9885
vn -0.1510 -0.0002 0.9885
vn -0.1511 -0.0004 0.9885
vn 0.0898 0.8660 -0.4920
vn 0.9874 0.0038 0.1583
vn -0.0773 0.8660 -0.4940
vn -0.0759 -0.8717 -0.4842
vn 0.0911 0.8569 -0.5074
vn -0.0767 -0.8691 -0.4886
vn 0.0917 0.8596 -0.5027
vn 0.0902 -0.8642 -0.4951
vn 0.0896 -0.8659 -0.4921
vn -0.0775 -0.8660 -0.4940
vn 0.9848 -0.0000 -0.1737
vn 0.1830 -0.0000 0.9831
vn 0.9855 -0.0000 0.1698
vn 0.9856 -0.0000 0.1692
vn 0.9871 -0.0001 0.1598
vn 0.9875 -0.0056 0.1577
vn -0.0781 -0.8638 -0.4977
vn -0.0763 0.8684 -0.4899
vn 0.9798 -0.0218 0.1988
vn 0.2560 0.8661 -0.4293
vn 0.8690 -0.0001 0.4948
vn -0.4873 -0.0000 0.8732
vn -0.1510 -0.0000 0.9885
vn 0.8689 -0.0001 0.4950
vn -0.1460 -0.0085 0.9892
vn -0.1511 -0.0000 0.9885
vn -0.0726 0.8767 -0.4755
vn 0.1805 -0.0000 0.9836
vn 0.1810 -0.0000 0.9835
vn -0.1495 -0.0000 0.9888
vn 0.2558 -0.8661 -0.4294
vn -0.9870 0.0001 -0.1605
vn -0.9870 0.0001 -0.1606
vn -0.9875 0.0022 -0.1576
vn 0.2544 -0.8676 -0.4273
s 0
f 33//1 34//1 35//1
f 47//2 20//2 48//2
f 49//3 50//3 27//3
f 51//4 38//4 52//4
f 53//5 54//5 25//5
f 55//3 56//3 57//3
f 58//6 59//6 30//6
f 24//6 60//6 61//6
f 62//7 39//7 63//7
f 64//8 65//8 32//8
f 66//9 67//9 68//9
f 22//10 69//10 70//10
f 71//11 72//11 40//11
f 29//12 73//12 74//12
f 75//13 76//13 77//13
f 78//14 31//14 79//14
f 80//2 81//2 82//2
f 18//2 83//2 84//2
f 85//15 86//15 87//15
f 88//16 89//16 6//16
f 9//17 90//17 91//17
f 92//18 93//18 42//18
f 94//19 95//19 8//19
f 96//20 43//20 97//20
f 98//21 99//21 11//21
f 100//22 101//22 102//22
f 103//23 104//23 13//23
f 41//24 105//24 106//24
f 107//25 108//25 109//25
f 110//26 15//26 111//26
f 112//27 113//27 114//27
f 115//28 116//28 23//28
f 19//29 117//29 118//29
f 119//30 36//30 120//30
f 121//31 21//31 122//31
f 123//32 28//32 124//32
f 125//33 126//33 127//33
f 128//34 129//34 26//34
f 130//35 131//35 17//35
f 132//36 133//36 134//36
f 1//37 135//37 136//37
f 137//38 138//38 12//38
f 139//39 45//39 140//39
f 141//39 142//39 10//39
f 143//40 144//40 3//40
f 145//41 146//41 147//41
f 148//42 149//42 4//42
f 150//43 151//43 152//43
f 153//44 154//44 5//44
f 2//45 155//45 156//45
f 44//46 157//46 158//46
f 159//46 160//46 161//46
f 162//47 163//47 46//47
f 164//48 165//48 7//48
f 166//48 167//48 16//48
f 168//49 169//49 170//49
f 171//50 172//50 14//50
f 173//51 174//51 175//51
f 176//52 177//52 178//52
f 179//48 180//48 181//48
f 182//39 183//39 184//39
f 185//46 186//46 187//46
f 188//53 189//53 190//53
f 191//54 192//54 193//54
f 194//55 195//55 196//55
f 197//7 198//7 199//7
f 37//56 200//56 201//56
f 202//57 203//57 204//57
f 205//58 206//58 207//58
f 208//59 209//59 210//59
f 211//58 212//58 213//58
f 214//60 215//60 216//60
f 217//61 218//61 219//61
f 220//62 221//62 222//62
f 223//63 224//63 225//63
f 226//64 227//64 228//64
f 229//65 230//65 231//65
f 232//62 233//62 234//62
f 235//66 236//66 237//66
f 238//13 239//13 240//13
f 241//67 242//67 243//67
f 244//37 245//37 246//37
f 247//68 248//68 249//68
f 250//69 251//69 252//69
f 253//70 254//70 255//70
f 256//71 257//71 258//71
f 259//6 260//6 261//6
f 262//3 263//3 264//3
o Object.2
v -57.726849 -9.981927 186.640854
v -57.726849 10.018070 186.640839
v -43.219040 10.018080 211.768875
v -100.806076 -9.981915 211.768875
v -100.806076 10.018080 211.768875
v -86.298264 10.018070 186.640839
v -86.298264 -9.981927 186.640854
v -57.504749 -9.981905 236.512299
v -57.504749 10.018091 236.512299
v -43.219040 -9.981915 211.768875
v -86.298264 10.018091 236.640488
v -86.298264 -9.981905 236.640488
v -100.806076 -9.981915 211.768875
v -86.298264 10.018070 186.640839
v -57.726849 -9.981927 186.640854
v -86.298264 -9.981927 186.640854
v -57.726849 10.018070 186.640839
v -86.298264 -9.981927 186.640854
v -86.298264 10.018070 186.640839
v -57.726849 10.018070 186.640839
v -86.298264 -9.981927 186.640854
v -100.806076 -9.981915 211.768875
v -57.504749 -9.981905 236.512299
v -43.219040 10.018080 211.768875
v -57.726849 -9.981927 186.640854
v -43.219040 10.018080 211.768875
v -86.298264 10.018070 186.640839
v -100.806076 10.018080 211.768875
v -86.298264 -9.981927 186.640854
v -57.726849 -9.981927 186.640854
v -43.219040 -9.981915 211.768875
v -43.219040 10.018080 211.768875
v -86.298264 10.018070 186.640839
v -57.504749 10.018091 236.512299
v -100.806076 -9.981915 211.768875
v -86.298264 10.018091 236.640488
v -100.806076 10.018080 211.768875
v -100.806076 -9.981915 211.768875
v -86.298264 10.018091 236.640488
v -43.219040 -9.981915 211.768875
v -57.504749 -9.981905 236.512299
v -86.298264 -9.981927 186.640854
v -57.504749 -9.981905 236.512299
v -86.298264 -9.981905 236.640488
v -100.806076 -9.981915 211.768875
v -57.504749 -9.981905 236.512299
v -86.298264 10.018091 236.640488
v -86.298264 -9.981905 236.640488
v -86.298264 10.018091 236.640488
v -57.504749 10.018091 236.512299
v -86.298264 10.018070 186.640839
v -57.504749 -9.981905 236.512299
v -57.504749 10.018091 236.512299
v -86.298264 10.018091 236.640488
v -57.504749 -9.981905 236.512299
v -43.219040 -9.981915 211.768875
v -43.219040 10.018080 211.768875
v -86.298264 10.018070 186.640839
v -43.219040 10.018080 211.768875
v -57.726849 10.018070 186.640839
vn 0.8660 -0.0000 -0.5000
vn -0.8660 -0.0000 -0.5000
vn -0.0000 -0.0000 -1.0000
vn -0.0000 -1.0000 -0.0000
vn 0.8660 -0.0000 0.5000
vn -0.0000 1.0000 -0.0000
vn -0.8638 -0.0000 0.5039
vn 0.0045 -0.0000 1.0000
s 0
f 265//72 266//72 267//72
f 268//73 269//73 270//73
f 277//73 278//73 271//73
f 279//74 280//74 281//74
f 282//74 283//74 284//74
f 285//75 272//75 286//75
f 287//76 288//76 273//76
f 289//72 290//72 274//72
f 291//77 292//77 275//77
f 293//75 294//75 295//75
f 296//77 297//77 298//77
f 299//78 300//78 301//78
f 302//78 276//78 303//78
f 304//75 305//75 306//75
f 307//75 308//75 309//75
f 310//79 311//79 312//79
f 313//77 314//77 315//77
f 316//79 317//79 318//79
f 319//76 320//76 321//76
f 322//77 323//77 324//77
o Object.3
v -72.012558 -29.982000 199.454788
v -64.012558 -29.982000 199.454788
v -72.012558 -9.982040 199.454788
v -64.012558 -9.982041 191.454788
v -72.012558 -29.982000 191.454788
v -72.012558 -9.982041 191.454788
v -64.012558 -29.982000 191.454788
v -64.012558 -9.982040 199.454788
v -72.012558 -29.982000 191.454788
v -64.012558 -9.982041 191.454788
v -72.012558 -9.982040 199.454788
v -64.012558 -29.982000 199.454788
v -72.012558 -29.982000 191.454788
v -64.012558 -29.982000 191.454788
v -64.012558 -29.982000 199.454788
v -72.012558 -29.982000 191.454788
v -72.012558 -9.982040 199.454788
v -72.012558 -9.982041 191.454788
v -64.012558 -9.982040 199.454788
v -64.012558 -29.982000 199.454788
v -64.012558 -29.982000 191.454788
v -72.012558 -9.982041 191.454788
v -72.012558 -9.982040 199.454788
v -64.012558 -9.982040 199.454788
v -72.012558 -29.982000 191.454788
v -72.012558 -29.982000 199.454788
v -72.012558 -9.982040 199.454788
v -64.012558 -29.982000 191.454788
v -64.012558 -9.982041 191.454788
v -64.012558 -9.982040 199.454788
v -64.012558 -29.982000 199.454788
v -72.012558 -29.982000 199.454788
v -72.012558 -29.982000 191.454788
v -64.012558 -9.982040 199.454788
v -64.012558 -9.982041 191.454788
v -72.012558 -9.982041 191.454788
vn -0.0000 -0.0000 1.0000
vn -0.0000 -0.0000 -1.0000
vn -0.0000 -1.0000 -0.0000
vn -1.0000 -0.0000 -0.0000
vn 1.0000 -0.0000 -0.0000
vn -0.0000 1.0000 -0.0000
s 0
f 325//80 326//80 327//80
f 328//81 329//81 330//81
f 333//81 334//81 331//81
f 332//80 335//80 336//80
f 337//82 338//82 339//82
f 340//83 341//83 342//83
f 343//84 344//84 345//84
f 346//85 347//85 348//85
f 349//83 350//83 351//83
f 352//84 353//84 354//84
f 355//82 356//82 357//82
f 358//85 359//85 360//85
o Object.4
v 21.027796 -1.499983 266.564880
v 25.027792 -1.499983 266.564880
v 21.027796 1.500021 266.564880
v 25.027792 1.500021 262.564880
v 21.027796 -1.499983 262.564880
v 21.027796 1.500021 262.564880
v 25.027792 -1.499983 262.564880
v 25.027792 1.500021 266.564880
v 21.027796 -1.499983 262.564880
v 25.027792 1.500021 262.564880
v 21.027796 1.500021 266.564880
v 25.027792 -1.499983 266.564880
v 21.027796 -1.499983 262.564880
v 25.027792 -1.499983 262.564880
v 25.027792 -1.499983 266.564880
v 21.027796 -1.499983 262.564880
v 21.027796 1.500021 266.564880
v 21.027796 1.500021 262.564880
v 25.027792 1.500021 266.564880
v 25.027792 -1.499983 266.564880
v 25.027792 -1.499983 262.564880
v 21.027796 1.500021 262.564880
v 21.027796 1.500021 266.564880
v 25.027792 1.500021 266.564880
v 21.027796 -1.499983 262.564880
v 21.027796 -1.499983 266.564880
v 21.027796 1.500021 266.564880
v 25.027792 -1.499983 262.564880
v 25.027792 1.500021 262.564880
v 25.027792 1.500021 266.564880
v 25.027792 -1.499983 266.564880
v 21.027796 -1.499983 266.564880
v 21.027796 -1.499983 262.564880
v 25.027792 1.500021 266.564880
v 25.027792 1.500021 262.564880
v 21.027796 1.500021 262.564880
vn -0.0000 -0.0000 1.0000
vn -0.0000 -0.0000 -1.0000
vn -0.0000 -1.0000 -0.0000
vn -1.0000 -0.0000 -0.0000
vn 1.0000 -0.0000 -0.0000
vn -0.0000 1.0000 -0.0000
s 0
f 361//86 362//86 363//86
f 364//87 365//87 366//87
f 369//87 370//87 367//87
f 368//86 371//86 372//86
f 373//88 374//88 375//88
f 376//89 377//89 378//89
f 379//90 380//90 381//90
f 382//91 383//91 384//91
f 385//89 386//89 387//89
f 388//90 389//90 390//90
f 391//88 392//88 393//88
f 394//91 395//91 396//91
o Object.5
v 182.780945 -1.231922 316.961395
v 186.280945 -1.231922 316.961395
v 182.780945 1.268078 316.961395
v 186.280945 1.268078 313.461395
v 182.780945 -1.231922 313.461395
v 182.780945 1.268078 313.461395
v 186.280945 -1.231922 313.461395
v 186.280945 1.268078 316.961395
v 182.780945 -1.231922 313.461395
v 186.280945 1.268078 313.461395
v 182.780945 1.268078 316.961395
v 186.280945 -1.231922 316.961395
v 182.780945 -1.231922 313.461395
v 186.280945 -1.231922 313.461395
v 186.280945 -1.231922 316.961395
v 182.780945 -1.231922 313.461395
v 182.780945 1.268078 316.961395
v 182.780945 1.268078 313.461395
v 186.280945 1.268078 316.961395
v 186.280945 -1.231922 316.961395
v 186.280945 -1.231922 313.461395
v 182.780945 1.268078 313.461395
v 182.780945 1.268078 316.961395
v 186.280945 1.268078 316.961395
v 182.780945 -1.231922 313.461395
v 182.780945 -1.231922 316.961395
v 182.780945 1.268078 316.961395
v 186.280945 -1.231922 313.461395
v 186.280945 1.268078 313.461395
v 186.280945 1.268078 316.961395
v 186.280945 -1.231922 316.961395
v 182.780945 -1.231922 316.961395
v 182.780945 -1.231922 313.461395
v 186.280945 1.268078 316.961395
v 186.280945 1.268078 313.461395
v 182.780945 1.268078 313.461395
vn -0.0000 -0.0000 1.0000
vn -0.0000 -0.0000 -1.0000
vn -0.0000 -1.0000 -0.0000
vn -1.0000 -0.0000 -0.0000
vn 1.0000 -0.0000 -0.0000
vn -0.0000 1.0000 -0.0000
s 0
f 397//92 398//92 399//92
f 400//93 401//93 402//93
f 405//93 406//93 403//93
f 404//92 407//92 408//92
f 409//94 410//94 411//94
f 412//95 413//95 414//95
f 415//96 416//96 417//96
f 418//97 419//97 420//97
f 421//95 422//95 423//95
f 424//96 425//96 426//96
f 427//94 428//94 429//94
f 430//97 431//97 432//97
o Object.6
v 335.160614 -0.999985 314.127136
v 338.160614 -0.999985 314.127136
v 335.160614 1.000011 314.127136
v 338.160614 1.000010 311.127136
v 335.160614 -0.999985 311.127136
v 335.160614 1.000010 311.127136
v 338.160614 -0.999985 311.127136
v 338.160614 1.000011 314.127136
v 335.160614 -0.999985 311.127136
v 338.160614 1.000010 311.127136
v 335.160614 1.000011 314.127136
v 338.160614 -0.999985 314.127136
v 335.160614 -0.999985 311.127136
v 338.160614 -0.999985 311.127136
v 338.160614 -0.999985 314.127136
v 335.160614 -0.999985 311.127136
v 335.160614 1.000011 314.127136
v 335.160614 1.000010 311.127136
v 338.160614 1.000011 314.127136
v 338.160614 -0.999985 314.127136
v 338.160614 -0.999985 311.127136
v 335.160614 1.000010 311.127136
v 335.160614 1.000011 314.127136
v 338.160614 1.000011 314.127136
v 335.160614 -0.999985 311.127136
v 335.160614 -0.999985 314.127136
v 335.160614 1.000011 314.127136
v 338.160614 -0.999985 311.127136
v 338.160614 1.000010 311.127136
v 338.160614 1.000011 314.127136
v 338.160614 -0.999985 314.127136
v 335.160614 -0.999985 314.127136
v 335.160614 -0.999985 311.127136
v 338.160614 1.000011 314.127136
v 338.160614 1.000010 311.127136
v 335.160614 1.000010 311.127136
vn -0.0000 -0.0000 1.0000
vn -0.0000 -0.0000 -1.0000
vn -0.0000 -1.0000 -0.0000
vn -1.0000 -0.0000 -0.0000
vn 1.0000 -0.0000 -0.0000
vn -0.0000 1.0000 -0.0000
s 0
f 433//98 434//98 435//98
f 436//99 437//99 438//99
f 441//99 442//99 439//99
f 440//98 443//98 444//98
f 445//100 446//100 447//100
f 448//101 449//101 450//101
f 451//102 452//102 453//102
f 454//103 455//103 456//103
f 457//101 458//101 459//101
f 460//102 461//102 462//102
f 463//100 464//100 465//100
f 466//103 467//103 468//103
